<?xml version="1.0" encoding="UTF-8" standalone="no"?>
<!-- Created with Inkscape (http://www.inkscape.org/) -->

<svg
   width="25mm"
   height="25mm"
   viewBox="0 0 25 25"
   version="1.1"
   id="svg1"
   xml:space="preserve"
   xmlns="http://www.w3.org/2000/svg"
   xmlns:svg="http://www.w3.org/2000/svg"><defs
     id="defs1" /><g
     id="layer1"><path
       style="fill:#ffff;stroke-width:1.13161;"
       d="M 7.3797566,24.577915 C 6.4759139,24.435759 5.5984402,23.954464 4.9504113,23.245417 4.5257098,22.780727 4.3242486,22.438551 4.0499443,21.716002 3.8855456,21.282959 3.8818951,21.155927 3.8572689,15.011187 c -0.017223,-4.297648 0.00181,-6.363218 0.06053,-6.5814281 0.230624,-0.8564718 1.3948714,-1.0198241 1.8895395,-0.2651161 0.1302272,0.1986866 0.1432034,0.670037 0.1801178,6.5426922 0.038067,6.05586 0.046419,6.341963 0.1938658,6.639135 0.1964754,0.395986 0.5714526,0.770963 0.9674382,0.967438 0.2970215,0.147372 0.5237698,0.154086 5.2034878,0.154086 4.679717,0 4.906467,-0.0067 5.203488,-0.154086 0.395986,-0.196475 0.770963,-0.571452 0.967437,-0.967438 0.147446,-0.297172 0.155801,-0.583275 0.193866,-6.639135 0.03691,-5.8726552 0.04989,-6.3440056 0.180118,-6.5426922 0.2103,-0.320852 0.508589,-0.4815274 0.893941,-0.4815274 0.385417,0 0.683698,0.160708 0.893941,0.4816375 0.131143,0.2001854 0.140338,0.6340955 0.140338,6.6222521 v 6.408031 l -0.18392,0.53229 c -0.44655,1.292382 -1.354131,2.206775 -2.686594,2.70676 -0.466034,0.17487 -0.522193,0.176891 -5.324155,0.191565 -2.669235,0.0081 -5.0321641,-0.01333 -5.2509537,-0.04773 z M 9.731679,19.180001 C 9.58259,19.100042 9.395188,18.912643 9.3152316,18.763553 9.18004,18.511476 9.1698543,18.21637 9.1698543,14.551785 c 0,-3.664584 0.010184,-3.95969 0.1453773,-4.211768 C 9.59177,9.8243818 10.249257,9.6365134 10.73684,9.9338113 c 0.564991,0.3444967 0.541352,0.1428387 0.541352,4.6179737 0,4.475136 0.02364,4.273477 -0.541352,4.617974 -0.318551,0.194234 -0.655683,0.197669 -1.005161,0.0103 z m 4.235982,-0.0103 c -0.564992,-0.344498 -0.541353,-0.142838 -0.541353,-4.617974 0,-4.475135 -0.02364,-4.273477 0.541353,-4.6179742 0.487582,-0.2972978 1.14507,-0.1094293 1.421608,0.4062052 0.135191,0.252079 0.145377,0.547184 0.145377,4.211769 0,3.664584 -0.01018,3.95969 -0.145377,4.211767 -0.276538,0.515636 -0.934026,0.703505 -1.421608,0.406207 z M 3.3668874,6.4504199 C 2.8512517,6.1738815 2.6633834,5.5163946 2.960681,5.028812 3.2865428,4.4943836 3.3085572,4.4900651 5.8445187,4.463089 L 8.1355751,4.4387174 V 3.2458497 c 0,-1.39371 0.062601,-1.5900986 0.5820863,-1.8259502 0.3098551,-0.1406793 0.560975,-0.1511204 3.6345896,-0.1511204 4.414876,0 4.216674,-0.092931 4.216674,1.9770706 V 4.438718 l 2.291057,0.02437 c 2.535962,0.026977 2.557975,0.031295 2.883837,0.565723 0.297297,0.4875827 0.109427,1.1450696 -0.406207,1.4216079 -0.257803,0.1382614 -0.697602,0.1453771 -8.985361,0.1453771 -8.287761,0 -8.7275605,-0.00712 -8.9853636,-0.1453761 z M 14.500367,3.9305408 V 3.4134015 H 12.352251 10.204132 V 3.9305408 4.44768 h 2.148119 2.148116 z"
       id="path1" /></g>
</svg>
